<?xml version="1.0" encoding="UTF-8"?>
<svg id="b" data-name="Layer 2" xmlns="http://www.w3.org/2000/svg" viewBox="0 0 512.012 512">
  <g id="c" data-name="apple music">
    <path d="M511.998,160.16h.014c0-6.116,0-12.231-.028-18.347-.028-5.149-.085-10.297-.228-15.446-.299-11.222-.967-22.529-2.958-33.622-2.02-11.264-5.333-21.746-10.539-31.987-5.12-10.055-11.805-19.243-19.784-27.222-7.979-7.979-17.181-14.663-27.236-19.784-10.226-5.205-20.708-8.505-31.958-10.539-11.094-1.991-22.415-2.66-33.636-2.958-5.149-.142-10.297-.199-15.446-.228-6.116-.028-12.231-.028-18.347-.028h-191.692c-6.116,0-12.231,0-18.347.028-5.149.028-10.297.085-15.446.228-11.221.313-22.543.967-33.636,2.972-11.264,2.02-21.732,5.333-31.958,10.539-10.055,5.12-19.257,11.805-27.236,19.784-7.979,7.979-14.663,17.167-19.784,27.222-5.205,10.24-8.519,20.722-10.539,31.987-1.991,11.094-2.66,22.415-2.958,33.622-.142,5.149-.199,10.297-.228,15.446-.028,6.102-.028,12.217-.028,18.333v191.677c0,6.116,0,12.231.028,18.347.028,5.149.085,10.297.228,15.446.299,11.222.967,22.529,2.958,33.622,2.02,11.264,5.333,21.746,10.539,31.987,5.12,10.055,11.805,19.243,19.784,27.222s17.181,14.663,27.236,19.784c10.226,5.205,20.708,8.505,31.958,10.539,11.094,1.991,22.415,2.66,33.636,2.958,5.149.142,10.297.199,15.446.228,6.116.043,12.231.029,18.347.029h191.677c6.116,0,12.231,0,18.347-.029,5.148-.028,10.297-.085,15.446-.228,11.222-.299,22.543-.967,33.636-2.958,11.264-2.02,21.732-5.333,31.958-10.539,10.055-5.12,19.257-11.805,27.236-19.784,7.979-7.979,14.663-17.167,19.784-27.222,5.205-10.24,8.519-20.722,10.539-31.987,1.991-11.094,2.66-22.415,2.958-33.622.142-5.149.199-10.297.228-15.446.043-6.116.028-12.231.028-18.347v-191.677ZM374.793,333.192c0,6.485-.057,12.359-1.422,18.859-1.323,6.301-3.726,12.231-7.453,17.565-3.712,5.319-8.462,9.686-14.009,12.957-5.604,3.314-11.492,5.205-17.778,6.471-11.805,2.375-19.883,2.916-27.464,1.394-7.31-1.479-13.511-4.836-18.475-9.387-7.353-6.727-11.933-15.83-12.928-25.345-1.166-11.15,2.532-23.055,10.909-31.83,4.224-4.437,9.529-7.936,16.612-10.681,7.41-2.873,15.588-4.594,28.161-7.126,3.314-.668,6.628-1.337,9.942-2.005,4.366-.882,8.093-1.991,11.108-5.675,3.044-3.698,3.086-8.221,3.086-12.687v-112.771c0-8.633-3.883-10.98-12.118-9.401-5.902,1.152-132.398,26.667-132.398,26.667-7.14,1.735-9.643,4.068-9.643,12.914v165.195c0,6.485-.327,12.359-1.692,18.859-1.323,6.301-3.726,12.231-7.453,17.565-3.712,5.319-8.462,9.686-14.009,12.957-5.604,3.314-11.492,5.291-17.778,6.557-11.805,2.389-19.883,2.916-27.464,1.394-7.31-1.465-13.511-4.921-18.475-9.472-7.353-6.727-11.634-15.83-12.63-25.345-1.166-11.151,2.233-23.055,10.61-31.83,4.224-4.437,9.529-7.936,16.612-10.681,7.41-2.873,15.588-4.594,28.161-7.125,3.314-.668,6.628-1.337,9.942-2.005,4.366-.882,8.093-1.991,11.108-5.675,3.015-3.684,3.371-8.007,3.371-12.459v-190.469c0-2.56.213-4.295.341-5.149.612-4.011,2.219-7.453,5.12-9.885,2.404-2.02,5.518-3.428,9.487-4.267l.057-.014,152.181-30.706c1.323-.27,12.317-2.219,13.554-2.333,8.235-.711,12.857,4.693,12.829,13.455v241.513Z" fill="#e1effa" fill-rule="evenodd"/>
  </g>
</svg>